# xmcd CD database file
#
# Track frame offsets:
#	150
#	14431
#	25407
#	39665
#	53474
#	63228
#	79149
#	92996
#	106896
#	121391
#	131071
#	149513
#
# Disc length: 2155 seconds
#
# Revision: 0
# Processed by: cddbd v1.5PL3 Copyright (c) Steve Scherf et al.
# Submitted via: CDex 1.51
#
DISCID=a308690c
DTITLE=Aric Riley - Talk About Trouble
DYEAR=2003
DGENRE=Blues
TTITLE0=Talk About Trouble
TTITLE1=Poor Boy, Long Ways From Home
TTITLE2=Catfish Blues
TTITLE3=Feel So Bad
TTITLE4=Railroad Bill
TTITLE5=Pay Day
TTITLE6=Goin' Down Slow
TTITLE7=Sweet Little Rider
TTITLE8=Blues (That Mean Old Twister)
TTITLE9=Sugar Babe
TTITLE10=Orinda-Moraga
TTITLE11=You're The One
EXTD=YEAR: 2003
EXTT0=
EXTT1=
EXTT2=
EXTT3=
EXTT4=
EXTT5=
EXTT6=
EXTT7=
EXTT8=
EXTT9=
EXTT10=
EXTT11=
PLAYORDER=
